<?xml version="1.0" encoding="utf-8"?>
<!-- Generator: Adobe Illustrator 25.2.1, SVG Export Plug-In . SVG Version: 6.00 Build 0)  -->
<svg version="1.1" id="Calque_1" xmlns="http://www.w3.org/2000/svg" xmlns:xlink="http://www.w3.org/1999/xlink" x="0px" y="0px"
	 viewBox="0 0 15.8 15.8" style="enable-background:new 0 0 15.8 15.8;" xml:space="preserve">
<style type="text/css">
	.st0{fill:#FFFFFF;}
</style>
<g>
	<path class="st0" d="M14.4,15.8h-13v-0.7c0-3.6,2.9-6.5,6.5-6.5s6.5,2.9,6.5,6.5V15.8z M2.9,14.3h10c-0.4-2.4-2.5-4.3-5-4.3
		S3.3,11.9,2.9,14.3z"/>
	<path class="st0" d="M7.9,7.3c-2,0-3.6-1.6-3.6-3.6S5.9,0,7.9,0s3.6,1.6,3.6,3.6S9.9,7.3,7.9,7.3z M7.9,1.5c-1.2,0-2.2,1-2.2,2.2
		s1,2.2,2.2,2.2s2.2-1,2.2-2.2S9.1,1.5,7.9,1.5z"/>
</g>
</svg>
